<svg width="250" height="250" viewBox="0 0 250 250" xmlns="http://www.w3.org/2000/svg">
  <!-- Background Soft Circle -->
  <circle cx="125" cy="125" r="120" fill="#f0f9ff" stroke="#0ea5e9" stroke-width="2"/>
  
  <!-- Mascot Body (Cute Round Robot/Blob) -->
  <ellipse cx="125" cy="140" rx="85" ry="75" fill="#38bdf8"/>
  <ellipse cx="125" cy="145" rx="75" ry="65" fill="#7dd3fc"/>
  
  <!-- Face -->
  <!-- Eyes -->
  <circle cx="95" cy="130" r="12" fill="#0f172a"/>
  <circle cx="155" cy="130" r="12" fill="#0f172a"/>
  <!-- Eye Highlights -->
  <circle cx="98" cy="125" r="4" fill="white"/>
  <circle cx="158" cy="125" r="4" fill="white"/>
  
  <!-- Cheeks -->
  <circle cx="75" cy="150" r="10" fill="#f472b6" opacity="0.4"/>
  <circle cx="175" cy="150" r="10" fill="#f472b6" opacity="0.4"/>
  
  <!-- Smile -->
  <path d="M 110 160 Q 125 175 140 160" stroke="#0f172a" stroke-width="4" fill="none" stroke-linecap="round"/>
  
  <!-- Antenna (Search/Index metaphor) -->
  <path d="M 125 65 L 125 40" stroke="#0ea5e9" stroke-width="6" stroke-linecap="round"/>
  <circle cx="125" cy="35" r="10" fill="#f59e0b"/> <!-- Glowing tip -->
  
  <!-- Index Card "Badge" -->
  <rect x="105" y="185" width="40" height="28" rx="4" fill="white" stroke="#0ea5e9" stroke-width="2"/>
  <line x1="112" y1="193" x2="138" y2="193" stroke="#0ea5e9" stroke-width="2"/>
  <line x1="112" y1="200" x2="138" y2="200" stroke="#0ea5e9" stroke-width="2"/>
  <line x1="112" y1="207" x2="125" y2="207" stroke="#0ea5e9" stroke-width="2"/>
</svg>